<svg height="512pt" viewBox="0 0 512 512" width="512pt" xmlns="http://www.w3.org/2000/svg"><path d="m437.019531 74.980469c-48.351562-48.351563-112.640625-74.980469-181.019531-74.980469s-132.667969 26.628906-181.019531 74.980469c-48.351563 48.351562-74.980469 112.640625-74.980469 181.019531s26.628906 132.667969 74.980469 181.019531c48.351562 48.351563 112.640625 74.980469 181.019531 74.980469s132.667969-26.628906 181.019531-74.980469c48.351563-48.351562 74.980469-112.640625 74.980469-181.019531s-26.628906-132.667969-74.980469-181.019531zm-21.214843 340.824219c-42.683594 42.6875-99.4375 66.195312-159.804688 66.195312s-117.121094-23.507812-159.804688-66.195312c-42.6875-42.683594-66.195312-99.4375-66.195312-159.804688s23.507812-117.121094 66.195312-159.804688c42.683594-42.6875 99.4375-66.195312 159.804688-66.195312s117.121094 23.507812 159.804688 66.195312c42.6875 42.683594 66.195312 99.4375 66.195312 159.804688s-23.507812 117.121094-66.195312 159.804688zm0 0"/><path d="m306.910156 334.019531h-.699218v-105.988281c0-12.433594-10.117188-22.546875-22.546876-22.546875h-74.570312c-12.433594 0-22.546875 10.113281-22.546875 22.546875v36.605469c0 12.433593 10.113281 22.546875 22.546875 22.546875h.773438v46.835937h-.773438c-12.433594 0-22.546875 10.113281-22.546875 22.546875v36.605469c0 12.433594 10.113281 22.546875 22.546875 22.546875h97.816406c12.433594 0 22.546875-10.113281 22.546875-22.546875v-36.605469c0-12.429687-10.117187-22.546875-22.546875-22.546875zm-7.453125 51.703125h-82.914062v-21.703125h7.207031c8.886719 0 16.117188-7.230469 16.117188-16.117187v-74.601563c0-8.886719-7.230469-16.113281-16.117188-16.113281h-7.207031v-21.703125h59.667969v112.417969c0 8.886718 7.230468 16.117187 16.117187 16.117187h7.128906zm0 0"/><path d="m258 193.128906c26.703125 0 48.425781-21.722656 48.425781-48.425781 0-26.699219-21.722656-48.425781-48.425781-48.425781s-48.425781 21.726562-48.425781 48.425781c0 26.703125 21.722656 48.425781 48.425781 48.425781zm0-66.851562c10.160156 0 18.425781 8.269531 18.425781 18.425781 0 10.160156-8.265625 18.425781-18.425781 18.425781s-18.425781-8.265625-18.425781-18.425781c0-10.15625 8.265625-18.425781 18.425781-18.425781zm0 0"/></svg>