<svg id="Capa_1" enable-background="new 0 0 512 512" height="30px" viewBox="0 0 512 512" xmlns="http://www.w3.org/2000/svg"><g><path fill="rgba(255,255,255,0.6)" d="m426 42h-80.529l-10.499-22.049c-5.773-12.12-18.176-19.951-31.6-19.951h-94.744c-13.424 0-25.827 7.831-31.601 19.952l-10.498 22.048h-80.529c-24.813 0-45 20.187-45 45v60c0 19.84 12.907 36.723 30.764 42.692l15.75 251.986c2.464 39.433 35.342 70.322 74.853 70.322h187.266c39.511 0 72.39-30.889 74.854-70.321l15.75-251.986c17.856-5.97 30.763-22.853 30.763-42.693v-60c0-24.813-20.187-45-45-45zm15 105c0 8.271-6.729 15-15 15-7.921 0-14.477 6.159-14.971 14.064l-16.484 263.743c-1.479 23.66-21.206 42.193-44.912 42.193h-187.266c-23.706 0-43.434-18.533-44.912-42.192l-16.484-263.743c-.494-7.906-7.05-14.065-14.971-14.065-8.271 0-15-6.729-15-15v-15h370zm0-45h-370v-15c0-8.271 6.729-15 15-15h90c5.786 0 11.056-3.327 13.543-8.551l14.569-30.598c.825-1.732 2.598-2.852 4.516-2.852h94.744c1.918 0 3.69 1.119 4.515 2.851l14.57 30.599c2.487 5.224 7.757 8.551 13.543 8.551h90c8.271 0 15 6.729 15 15z"/><path fill="rgba(255,255,255,0.6)" d="m177.32 271.33c6.384 5.281 15.838 4.386 21.119-1.997 14.369-17.37 35.349-27.333 57.561-27.333 30.888 0 57.449 18.78 68.926 45.512l-8.168-4.716c-7.175-4.144-16.349-1.684-20.49 5.49-4.143 7.175-1.685 16.349 5.49 20.49l36.742 21.214c2.362 1.364 4.941 2.013 7.486 2.013 5.184 0 10.226-2.691 13.004-7.503l21.213-36.742c4.143-7.175 1.685-16.349-5.49-20.49-7.175-4.145-16.349-1.684-20.49 5.49l-1.699 2.944c-16.071-37.424-53.282-63.702-96.524-63.702-31.184 0-60.59 13.928-80.677 38.212-5.281 6.383-4.386 15.838 1.997 21.118z"/><path fill="rgba(255,255,255,0.6)" d="m137.287 366.732c2.362 1.364 4.941 2.013 7.486 2.013 5.184-.001 10.226-2.691 13.004-7.503l1.698-2.941c16.072 37.422 53.284 63.699 96.525 63.699 31.184 0 60.59-13.928 80.677-38.212 5.281-6.383 4.387-15.838-1.997-21.118-6.384-5.281-15.838-4.387-21.119 1.997-14.369 17.37-35.349 27.333-57.561 27.333-30.891 0-57.461-18.779-68.933-45.517l8.175 4.72c7.174 4.142 16.348 1.684 20.49-5.49 4.143-7.175 1.685-16.349-5.49-20.49l-36.742-21.213c-7.175-4.144-16.348-1.684-20.49 5.49l-21.213 36.742c-4.143 7.175-1.685 16.349 5.49 20.49z"/></g></svg>